<?xml version="1.0" encoding="UTF-8" standalone="no"?>
<svg
   width="587.90021"
   height="408.91345"
   fill="currentColor"
   class="bi bi-cloud"
   viewBox="0 0 587.90021 408.91345"
   version="1.1"
   id="svg254"
   sodipodi:docname="cloud.svg"
   inkscape:export-filename="forms.svg"
   inkscape:export-xdpi="96"
   inkscape:export-ydpi="96"
   xmlns:inkscape="http://www.inkscape.org/namespaces/inkscape"
   xmlns:sodipodi="http://sodipodi.sourceforge.net/DTD/sodipodi-0.dtd"
   xmlns="http://www.w3.org/2000/svg"
   xmlns:svg="http://www.w3.org/2000/svg">
  <defs
     id="defs258" />
  <sodipodi:namedview
     id="namedview256"
     pagecolor="#ffffff"
     bordercolor="#666666"
     borderopacity="1.0"
     inkscape:showpageshadow="2"
     inkscape:pageopacity="0.0"
     inkscape:pagecheckerboard="0"
     inkscape:deskcolor="#d1d1d1"
     showgrid="false" />
  <g
     inkscape:groupmode="layer"
     id="layer2"
     inkscape:label="Layer 2"
     style="fill:#808080"
     transform="translate(2.2800708,5.3153119)">
    <rect
       style="fill:#24295e;fill-opacity:1;stroke-width:1.09485"
       id="rect4245"
       width="587.90021"
       height="408.91345"
       x="-2.2800708"
       y="-5.3153119" />
  </g>
  <path
     d="M 162.49825,54.115312 A 201.09091,201.09091 0 0 1 293.18916,5.3153119 c 97.81818,0 179.01818,72.7272731 187.85455,166.5090881 57.89091,8.18182 103.05454,56.65455 103.05454,116.14546 0,65.30909 -54.47273,117.34545 -120.47273,117.34545 H 139.77098 c -75.381818,0 -137.4909092,-59.41818 -137.4909092,-133.89091 0,-64.10909 46.0363642,-117.2 106.9818192,-130.65454 5.2,-31.38182 25.38182,-62.654548 53.23636,-86.654548 z m 23.74546,27.527273 c -27.52728,23.745455 -41.92728,52.363635 -41.92728,74.763635 v 16.29091 l -16.18181,1.78182 c -50.800004,5.56363 -89.490913,47.27272 -89.490913,96.94545 0,53.34546 44.727273,97.52727 101.127273,97.52727 h 323.85454 c 47.01819,0 84.1091,-36.8 84.1091,-80.98181 0,-44.21819 -37.09091,-81.01819 -84.1091,-81.01819 h -18.18181 v -18.18181 c 0.0364,-80.72728 -67.6,-147.090912 -152.25455,-147.090912 a 164.72727,164.72727 0 0 0 -106.94545,40 z"
     id="path252"
     style="fill:#ffffff;fill-opacity:1;stroke-width:36.3636" />
  <g
     inkscape:groupmode="layer"
     id="layer1"
     inkscape:label="Layer 1"
     transform="translate(2.2800708,3.3153119)">
    <g
       aria-label="FORMS"
       id="text594"
       style="font-size:130px;line-height:1.25;font-family:'Roboto Condensed';-inkscape-font-specification:'Roboto Condensed, ';letter-spacing:0px;word-spacing:0px;fill:#ffffff">
      <path
         d="m 127.85655,232.7209 v 16.9 H 88.986546 v 23.985 h 32.370004 v 16.965 H 88.986546 v 36.855 h -22.1 v -94.705 z"
         style="font-weight:900;font-family:Lato;-inkscape-font-specification:'Lato Heavy'"
         id="path5131" />
      <path
         d="m 232.63647,280.0409 q 0,10.27 -3.575,19.11 -3.51,8.84 -9.945,15.405 -6.435,6.5 -15.535,10.205 -9.035,3.705 -20.085,3.705 -11.05,0 -20.15,-3.705 -9.1,-3.705 -15.6,-10.205 -6.435,-6.565 -10.01,-15.405 -3.51,-8.84 -3.51,-19.11 0,-10.27 3.51,-19.11 3.575,-8.84 10.01,-15.34 6.5,-6.5 15.6,-10.205 9.1,-3.705 20.15,-3.705 11.05,0 20.085,3.77 9.1,3.705 15.535,10.205 6.435,6.5 9.945,15.34 3.575,8.84 3.575,19.045 z m -22.49,0 q 0,-7.02 -1.82,-12.61 -1.82,-5.655 -5.265,-9.555 -3.38,-3.9 -8.32,-5.98 -4.94,-2.08 -11.245,-2.08 -6.37,0 -11.375,2.08 -4.94,2.08 -8.385,5.98 -3.38,3.9 -5.2,9.555 -1.82,5.59 -1.82,12.61 0,7.085 1.82,12.74 1.82,5.59 5.2,9.49 3.445,3.9 8.385,5.98 5.005,2.015 11.375,2.015 6.305,0 11.245,-2.015 4.94,-2.08 8.32,-5.98 3.445,-3.9 5.265,-9.49 1.82,-5.655 1.82,-12.74 z"
         style="font-weight:900;font-family:Lato;-inkscape-font-specification:'Lato Heavy'"
         id="path5133" />
      <path
         d="m 267.54157,292.3909 v 35.035 h -21.97 v -94.705 h 30.81 q 10.27,0 17.485,2.145 7.28,2.08 11.83,5.85 4.615,3.77 6.695,8.905 2.08,5.135 2.08,11.18 0,4.615 -1.235,8.71 -1.235,4.095 -3.705,7.605 -2.405,3.445 -5.98,6.175 -3.51,2.73 -8.125,4.485 2.21,1.105 4.095,2.795 1.885,1.625 3.38,3.9 l 20.15,32.955 h -19.89 q -5.525,0 -7.93,-4.16 l -15.73,-27.495 q -1.105,-1.755 -2.47,-2.535 -1.365,-0.845 -3.9,-0.845 z m 0,-15.145 h 8.84 q 4.485,0 7.605,-1.105 3.185,-1.17 5.2,-3.185 2.015,-2.015 2.925,-4.68 0.91,-2.73 0.91,-5.85 0,-6.24 -4.095,-9.75 -4.03,-3.51 -12.545,-3.51 h -8.84 z"
         style="font-weight:900;font-family:Lato;-inkscape-font-specification:'Lato Heavy'"
         id="path5135" />
      <path
         d="m 379.47149,284.1359 q 1.3,2.47 2.47,5.135 1.235,2.665 2.34,5.46 1.105,-2.86 2.275,-5.59 1.235,-2.73 2.6,-5.2 l 24.31,-47.84 q 0.65,-1.235 1.3,-1.885 0.715,-0.715 1.56,-1.04 0.845,-0.325 1.885,-0.39 1.105,-0.065 2.535,-0.065 h 16.77 v 94.705 h -19.37 v -54.47 q 0,-3.965 0.39,-8.58 l -25.09,48.685 q -1.17,2.275 -3.185,3.445 -1.95,1.17 -4.485,1.17 h -2.99 q -2.535,0 -4.55,-1.17 -1.95,-1.17 -3.12,-3.445 l -25.22,-48.75 q 0.26,2.275 0.39,4.55 0.13,2.21 0.13,4.095 v 54.47 h -19.37 v -94.705 h 16.77 q 1.43,0 2.47,0.065 1.105,0.065 1.95,0.39 0.845,0.325 1.495,1.04 0.715,0.65 1.365,1.885 z"
         style="font-weight:900;font-family:Lato;-inkscape-font-specification:'Lato Heavy'"
         id="path5137" />
      <path
         d="m 508.17163,251.9609 q -0.975,1.56 -2.08,2.34 -1.04,0.78 -2.73,0.78 -1.495,0 -3.25,-0.91 -1.69,-0.975 -3.9,-2.145 -2.145,-1.17 -4.94,-2.08 -2.795,-0.975 -6.37,-0.975 -6.175,0 -9.23,2.665 -2.99,2.6 -2.99,7.085 0,2.86 1.82,4.745 1.82,1.885 4.745,3.25 2.99,1.365 6.76,2.535 3.835,1.105 7.8,2.535 3.965,1.365 7.735,3.25 3.835,1.885 6.76,4.81 2.99,2.925 4.81,7.15 1.82,4.16 1.82,10.075 0,6.565 -2.275,12.285 -2.275,5.72 -6.63,10.01 -4.29,4.225 -10.66,6.695 -6.305,2.405 -14.365,2.405 -4.42,0 -9.035,-0.91 -4.55,-0.91 -8.84,-2.535 -4.29,-1.69 -8.06,-3.965 -3.77,-2.275 -6.565,-5.07 l 6.5,-10.27 q 0.78,-1.105 2.015,-1.82 1.3,-0.78 2.795,-0.78 1.95,0 3.9,1.235 2.015,1.235 4.485,2.73 2.535,1.495 5.785,2.73 3.25,1.235 7.67,1.235 5.98,0 9.295,-2.6 3.315,-2.665 3.315,-8.385 0,-3.315 -1.82,-5.395 -1.82,-2.08 -4.81,-3.445 -2.925,-1.365 -6.695,-2.405 -3.77,-1.04 -7.735,-2.275 -3.965,-1.3 -7.735,-3.12 -3.77,-1.885 -6.76,-4.875 -2.925,-3.055 -4.745,-7.54 -1.82,-4.55 -1.82,-11.18 0,-5.33 2.145,-10.4 2.145,-5.07 6.305,-9.035 4.16,-3.965 10.205,-6.305 6.045,-2.405 13.845,-2.405 4.355,0 8.45,0.715 4.16,0.65 7.865,2.015 3.705,1.3 6.89,3.185 3.25,1.82 5.785,4.16 z"
         style="font-weight:900;font-family:Lato;-inkscape-font-specification:'Lato Heavy'"
         id="path5139" />
    </g>
  </g>
</svg>
