<?xml version="1.0" encoding="UTF-8" standalone="no"?>
<!-- Created with Inkscape (http://www.inkscape.org/) -->
<svg xmlns:svg="http://www.w3.org/2000/svg" xmlns="http://www.w3.org/2000/svg" version="1.0" width="300" height="77.271">
  <path d="M 292.577,5.68434e-14 C 291.263,5.68434e-14 290.054,0.304 288.911,0.961 C 287.774,1.626 286.874,2.531 286.204,3.668 C 285.547,4.822 285.156,6.023 285.156,7.334 C 285.156,8.661 285.547,9.943 286.204,11.089 C 286.874,12.243 287.774,13.14 288.911,13.796 C 290.054,14.456 291.263,14.754 292.577,14.754 C 293.904,14.754 295.183,14.456 296.332,13.796 C 297.466,13.14 298.371,12.243 299.039,11.089 C 299.701,9.943 300,8.661 300,7.334 C 300,6.023 299.701,4.822 299.039,3.668 C 298.371,2.531 297.466,1.626 296.332,0.961 C 295.183,0.304 293.904,5.68434e-14 292.577,5.68434e-14 z M 292.577,1.397 C 294.219,1.397 295.608,1.975 296.767,3.143 C 297.938,4.314 298.514,5.694 298.514,7.334 C 298.514,8.993 297.938,10.438 296.767,11.614 C 295.608,12.771 294.219,13.358 292.577,13.358 C 290.917,13.358 289.556,12.771 288.386,11.614 C 287.215,10.438 286.639,8.993 286.639,7.334 C 286.639,5.694 287.215,4.314 288.386,3.143 C 289.556,1.975 290.917,1.397 292.577,1.397 z M 289.26,3.406 L 289.26,11.351 L 291.18,11.351 L 291.18,8.208 C 291.289,8.194 291.386,8.208 291.442,8.208 C 291.702,8.208 291.962,8.359 292.227,8.644 C 292.479,8.938 292.97,9.854 293.714,11.351 L 296.069,11.351 C 295.217,9.854 294.767,9.024 294.759,8.993 C 294.543,8.639 294.351,8.393 294.15,8.208 C 294.007,8.085 293.767,7.974 293.451,7.859 C 294.189,7.686 294.767,7.376 295.111,6.985 C 295.446,6.596 295.633,6.205 295.633,5.674 C 295.633,5.006 295.379,4.411 294.935,4.017 C 294.485,3.604 293.756,3.406 292.753,3.406 L 289.26,3.406 z M 291.18,4.803 L 292.141,4.803 C 292.683,4.803 293.046,4.875 293.275,5.065 C 293.499,5.247 293.624,5.465 293.624,5.764 C 293.624,6.04 293.49,6.272 293.275,6.462 C 293.029,6.638 292.621,6.725 292.054,6.725 L 291.18,6.725 L 291.18,4.803 z M 25.3213,13.447 C 21.9909,13.447 18.3449,13.746 14.3216,14.408 C 10.2844,15.051 6.8311,15.783 4.0177,16.59 C 1.2852,17.702 0,19.496 0,22.002 C 0,22.209 0.0922,22.776 0.352,23.575 C 0.5951,24.388 1.0254,25.173 1.573,25.93 C 2.129,26.685 2.847,27.232 3.755,27.679 C 4.6491,28.14 5.8393,28.171 7.2474,27.766 C 10.5722,26.964 13.7349,26.363 16.7635,25.844 C 19.7782,25.357 22.7481,25.058 25.6705,25.058 C 26.9753,25.262 28.1683,25.542 29.3362,25.844 C 30.4928,26.162 31.5015,26.511 32.3061,27.067 C 33.1108,27.623 33.6835,28.45 34.1389,29.512 C 34.5943,30.562 34.8374,31.993 34.8374,33.703 L 34.8374,36.846 C 26.4864,36.846 20.3425,37.324 16.4171,38.33 C 12.2821,39.235 9.1138,40.621 6.8982,42.434 C 2.2659,45.845 0,50.693 0,56.926 C 0,62.978 2.2659,67.864 6.8982,71.594 C 9.7173,73.81 13.0057,75.315 16.6769,76.134 C 20.3509,76.936 24.6703,77.271 29.5988,77.271 C 33.0158,77.271 36.9077,77.025 41.3863,76.483 C 45.8678,75.927 49.9609,75.215 53.6964,74.301 C 55.0039,73.905 56.1327,73.212 56.9289,72.206 C 57.7308,71.189 58.1499,69.96 58.1499,68.537 L 58.1499,33.703 C 58.1499,27.467 55.789,22.631 51.1651,19.208 C 48.1309,16.889 44.5044,15.341 40.3386,14.581 C 36.1561,13.83 31.1578,13.447 25.3213,13.447 z M 98.399,13.447 C 92.962,13.447 88.07,13.863 83.644,14.668 C 79.21,15.47 75.562,16.987 72.642,19.208 C 68.018,22.631 65.6571,27.467 65.6571,33.703 L 65.6571,56.926 C 65.6571,62.978 68.018,67.864 72.642,71.594 C 75.665,73.913 79.244,75.427 83.471,76.134 C 87.698,76.833 92.663,77.182 98.399,77.182 C 99.913,77.182 101.604,77.067 103.464,76.919 C 105.317,76.774 107.219,76.52 109.139,76.221 C 111.044,75.927 112.947,75.617 114.813,75.262 C 116.677,74.905 118.362,74.522 119.879,74.125 C 122.483,73.022 123.807,71.161 123.807,68.537 C 123.807,68.454 123.667,67.881 123.458,66.881 C 123.058,65.372 122.189,64.235 120.837,63.475 C 119.479,62.715 118.065,62.55 116.56,62.95 C 112.83,63.858 109.625,64.562 106.957,64.958 C 104.303,65.361 101.338,65.57 98.139,65.57 C 95.41,65.57 93.283,64.866 91.677,63.561 C 90.967,63.154 90.316,62.402 89.757,61.293 C 89.21,60.181 88.883,58.742 88.883,56.926 L 88.883,33.703 C 88.984,31.901 89.305,30.398 89.757,29.336 C 90.213,28.288 90.83,27.537 91.59,26.981 C 92.353,26.427 93.281,25.961 94.384,25.757 C 95.491,25.57 96.706,25.366 98.139,25.058 C 101.053,25.058 104.032,25.274 107.043,25.757 C 110.069,26.279 113.24,26.961 116.56,27.766 C 116.755,27.872 117.16,27.939 117.87,27.939 C 120.89,27.939 122.756,26.564 123.458,23.748 C 123.667,22.734 123.807,22.102 123.807,22.002 C 123.807,19.493 122.483,17.699 119.879,16.59 C 118.258,16.188 116.808,15.852 115.601,15.542 C 114.394,15.246 113.374,14.964 112.369,14.754 C 107.53,13.849 102.827,13.447 98.399,13.447 z M 160.041,13.447 C 156.627,13.447 152.601,13.715 148.078,14.319 C 143.543,14.919 139.492,15.609 135.768,16.414 C 134.46,16.819 133.343,17.596 132.538,18.599 C 131.728,19.616 131.314,20.778 131.314,22.178 L 131.314,68.537 C 131.314,70.267 131.862,71.706 132.974,72.818 C 134.069,73.927 135.466,74.477 137.078,74.477 L 148.69,74.477 C 150.296,74.477 151.724,73.891 152.881,72.728 C 154.046,71.572 154.627,70.155 154.627,68.537 L 154.627,26.106 C 156.638,25.391 158.575,25.058 160.391,25.058 C 162.089,25.058 163.193,25.274 163.707,25.757 C 164.71,26.377 165.367,27.475 165.716,28.987 C 166.068,30.507 166.238,32.094 166.238,33.703 L 166.238,68.537 C 166.238,70.267 166.786,71.706 167.898,72.818 C 169.015,73.927 170.39,74.477 172.002,74.477 L 183.614,74.477 C 185.229,74.477 186.6,73.846 187.718,72.642 C 188.822,71.418 189.288,70.06 189.288,68.537 L 189.288,26.106 C 190.4,25.788 191.509,25.514 192.521,25.321 C 193.526,25.114 194.418,25.058 195.228,25.058 C 197.544,25.058 199.095,25.749 199.855,27.154 C 200.615,28.565 200.989,30.792 200.989,33.703 L 200.989,68.537 C 200.989,70.158 201.579,71.572 202.735,72.728 C 203.903,73.888 205.239,74.477 206.84,74.477 L 218.451,74.477 C 220.063,74.477 221.429,73.846 222.555,72.642 C 223.653,71.418 224.215,70.06 224.212,68.537 L 224.212,33.703 C 224.212,27.662 221.943,22.832 217.403,19.208 C 214.688,17.093 211.371,15.534 207.449,14.668 C 203.515,13.827 199.324,13.447 194.789,13.447 C 191.171,13.447 187.81,13.606 184.751,13.969 C 181.677,14.316 178.548,14.768 175.319,15.366 C 172.703,14.567 170.34,14.045 168.334,13.796 C 166.316,13.556 163.578,13.447 160.041,13.447 z M 260.36,13.447 C 256.935,13.447 252.959,13.676 248.486,14.232 C 243.996,14.791 239.906,15.509 236.176,16.414 C 234.865,16.819 233.751,17.593 232.946,18.599 C 232.136,19.613 231.809,20.778 231.809,22.178 L 231.809,56.926 C 231.809,62.978 234.08,67.861 238.707,71.594 C 241.722,73.91 245.387,75.422 249.62,76.134 C 253.844,76.833 258.818,77.182 264.551,77.182 C 266.059,77.182 267.753,77.07 269.613,76.919 C 271.485,76.766 273.374,76.52 275.291,76.221 C 277.204,75.927 279.093,75.617 280.965,75.262 C 282.831,74.905 284.505,74.528 286.03,74.125 C 288.648,73.022 289.959,71.167 289.959,68.537 C 290.048,68.35 289.947,67.895 289.696,67.14 C 289.445,66.375 288.992,65.629 288.386,64.872 C 287.785,64.131 287,63.497 286.03,63.039 C 285.078,62.592 284.019,62.553 282.711,62.95 C 278.976,63.855 275.768,64.559 273.106,64.958 C 270.426,65.364 267.504,65.57 264.288,65.57 C 261.553,65.57 259.351,64.872 257.739,63.561 C 257.041,63.154 256.457,62.402 255.906,61.293 C 255.345,60.184 255.035,58.742 255.035,56.926 L 255.035,53.869 C 263.187,53.869 269.328,53.464 273.458,52.562 C 277.579,51.453 280.758,50.008 282.974,48.282 C 287.592,44.865 289.959,40.051 289.959,33.703 C 289.959,27.464 287.592,22.625 282.974,19.208 C 280.158,16.981 276.864,15.467 273.195,14.668 C 269.521,13.86 265.288,13.447 260.36,13.447 z M 260.796,25.058 C 262.503,25.058 263.62,25.276 264.115,25.757 C 265.238,26.481 265.903,27.506 266.21,28.813 C 266.509,30.118 266.646,31.8 266.646,33.703 C 266.646,35.309 266.484,36.86 266.121,38.416 C 265.766,39.989 265.126,41.048 264.115,41.649 C 263.411,42.152 262.355,42.434 261.058,42.434 C 259.139,42.434 257.155,42.093 255.035,41.386 L 255.035,26.106 C 257.052,25.391 258.98,25.058 260.796,25.058 z M 28.6377,48.282 C 30.7555,48.282 32.8286,48.645 34.8374,49.243 L 34.8374,64.609 C 32.8286,65.313 30.8896,65.657 29.0763,65.657 C 26.763,65.657 25.2515,64.97 24.4468,63.561 C 23.6394,62.159 23.2259,59.957 23.2259,56.926 C 23.1225,54.316 23.5527,52.123 24.4468,50.466 C 25.3688,48.81 26.7238,48.094 28.6377,48.282 z" style="fill:#231f20;fill-opacity:1;fill-rule:nonzero;stroke:none"/>
</svg>